<svg width="40" height="40" viewBox="0 0 40 40" fill="none" xmlns="http://www.w3.org/2000/svg">
<g>
<path d="M20.3 0C9.5 0 0.700001 8.8 0.700001 19.7C0.700001 23.1 1.6 26.5 3.3 29.5L1.37463e-06 39.1C-0.0999986 39.3 1.37836e-06 39.6 0.100001 39.8C0.300001 39.9 0.500001 40 0.700001 40C0.800001 40 0.800001 40 0.900001 40L11.5 37.2C14.3 38.6 17.3 39.3 20.4 39.3C31.2 39.3 40.1 30.5 40.1 19.6C40 8.8 31.2 0 20.3 0Z" fill="#97BA33"/>
<path d="M24.9 7.8H15.8C14.4 7.8 13.3 8.9 13.3 10.3V28.3C13.3 29.7 14.4 30.8 15.8 30.8H24.9C26.3 30.8 27.4 29.7 27.4 28.3V10.3C27.4 8.9 26.3 7.8 24.9 7.8ZM20.4 29.9C19.6 29.9 19 29.3 19 28.5C19 27.7 19.6 27.1 20.4 27.1C21.2 27.1 21.8 27.7 21.8 28.5C21.8 29.3 21.2 29.9 20.4 29.9ZM25.1 25.2C25.1 25.6 24.7 26 24.3 26H16.4C16 26 15.6 25.7 15.6 25.2V10.2C15.6 9.8 16 9.4 16.4 9.4H24.3C24.7 9.4 25.1 9.7 25.1 10.2V25.2V25.2Z" fill="white"/>
</g>
</svg>
