<svg width="40" height="40" viewBox="0 0 40 40" fill="none" xmlns="http://www.w3.org/2000/svg">
<path d="M40 20C40 31 31 40 20 40C9 40 0 31 0 20C0 9 9 0 20 0C31 0 40 9 40 20Z" fill="#6AACCE"/>
<path d="M30.3 17.3H29.5V16.2C29.5 14.5 28.1 13.1 26.3 13.1H21.1V10.5C21.8 10.1 22.2 9.4 22.2 8.5C22.2 7.2 21.2 6.2 19.9 6.2C18.6 6.2 17.6 7.2 17.6 8.5C17.6 9.3 18.1 10.1 18.7 10.5V13H13.5C11.8 13 10.4 14.4 10.4 16.1V17.2H9.7C8.7 17.2 7.9 18 7.9 19V22.8C7.9 23.8 8.7 24.6 9.7 24.6H10.5V25.7C10.5 27.4 11.9 28.8 13.6 28.8H15.1V30.5C15.1 31.5 15.9 32.3 16.9 32.3H23C24 32.3 24.8 31.5 24.8 30.5V28.8H26.3C28 28.8 29.5 27.4 29.5 25.7V24.6H30.3C31.3 24.6 32.1 23.8 32.1 22.8V19C32 18.1 31.2 17.3 30.3 17.3ZM13.1 18.5C13.1 17.3 14 16.4 15.2 16.4C16.4 16.4 17.3 17.3 17.3 18.5C17.3 19.7 16.4 20.6 15.2 20.6C14 20.6 13.1 19.6 13.1 18.5ZM22.8 26.1H17.1C16.2 26.1 15.4 25.3 15.4 24.4C15.4 23.5 16.2 22.7 17.1 22.7H22.8C23.7 22.7 24.5 23.5 24.5 24.4C24.6 25.3 23.8 26.1 22.8 26.1ZM24.8 20.6C23.6 20.6 22.7 19.7 22.7 18.5C22.7 17.3 23.6 16.4 24.8 16.4C26 16.4 26.9 17.3 26.9 18.5C26.9 19.6 26 20.6 24.8 20.6Z" fill="white"/>
</svg>
