<svg width="40" height="40" viewBox="0 0 40 40" fill="none" xmlns="http://www.w3.org/2000/svg">
<path d="M20 0C9 0 0 9 0 20C0 31 9 40 20 40C31 40 40 31 40 20C40 9 31 0 20 0ZM12.5 13.7H24L23.9 13.6C23.3 13 23.3 12.1 23.9 11.5C24.5 10.9 25.4 10.9 25.9 11.5L28.6 14.2C28.6 14.2 28.6 14.2 28.6 14.3C28.7 14.4 28.8 14.6 28.9 14.7C29 14.9 29 15.1 29 15.3V15.4C29 15.5 29 15.6 29 15.7C28.9 15.9 28.8 16.1 28.6 16.3L25.9 19C25.6 19.3 25.3 19.4 24.9 19.4C24.5 19.4 24.2 19.2 23.9 19C23.3 18.4 23.4 17.5 23.9 16.9L24 16.7H12.5C11.7 16.7 11.1 16 11.1 15.2C11 14.3 11.7 13.7 12.5 13.7ZM27.6 26.3H16L16.1 26.5C16.7 27.1 16.7 28 16.1 28.6C15.8 28.9 15.4 29 15.1 29C14.7 29 14.4 28.9 14.1 28.6L11.4 25.9C11.4 25.9 11.4 25.9 11.3 25.9C11.1 25.7 11 25.5 10.9 25.3C10.9 25.2 10.8 25.1 10.8 24.9C10.8 24.7 10.9 24.6 10.9 24.4C11 24.2 11.1 24 11.3 23.9L14 21.2C14.6 20.6 15.5 20.6 16 21.2C16.6 21.8 16.5 22.7 16 23.3V23.4H27.5C28.3 23.4 28.9 24.1 28.9 24.9C29 25.6 28.4 26.3 27.6 26.3Z" fill="#DAB81A"/>
</svg>
