<svg width="50" height="50" viewBox="0 0 50 50" fill="none" xmlns="http://www.w3.org/2000/svg">
<path d="M48.2 10C47.1 8.9 45.5 8.2 43.9 8.2C42.3 8.2 40.8 8.8 39.6 10L36 13.6V1.7C36 1 35.4 0.4 34.7 0.4H12.1C11.7 0.4 11.4 0.5 11.1 0.8L0.4 11.5C0.1 11.8 0 12.1 0 12.5V48.7C0 49.4 0.6 50 1.4 50H34.7C35.4 50 36 49.4 36 48.7V30.7L48.2 18.5C49.3 17.4 50 15.8 50 14.2C50 12.7 49.4 11.1 48.2 10ZM23.3 38.3L18.8 39.5L20 35L23.3 38.3ZM25.9 37.1L21.1 32.3L38.2 15.2L43 20L25.9 37.1ZM10.8 5V11.2H4.6L10.8 5ZM33.3 47.3H2.7V13.8H12.1C12.8 13.8 13.4 13.2 13.4 12.5V3.1H33.3V16.3L18.3 31.4C18.1 31.6 18 31.8 17.9 32L15.5 41C15.4 41.5 15.5 42 15.9 42.3C16.2 42.6 16.5 42.7 16.9 42.7C17 42.7 17.1 42.7 17.2 42.7L26.2 40.3C26.4 40.2 26.7 40.1 26.8 39.9L33.3 33.4V47.3V47.3ZM46.3 16.7L44.9 18.1L40.1 13.3L41.5 11.9C42.1 11.3 43 10.9 43.9 10.9C44.8 10.9 45.6 11.2 46.3 11.9C46.9 12.5 47.3 13.4 47.3 14.3C47.3 15.2 47 16 46.3 16.7Z" fill="#363B66"/>
<path d="M11.4 40.1H7.5C6.8 40.1 6.2 40.7 6.2 41.4C6.2 42.1 6.8 42.7 7.5 42.7H11.4C12.1 42.7 12.7 42.1 12.7 41.4C12.8 40.7 12.2 40.1 11.4 40.1Z" fill="#363B66"/>
<path d="M12.1 34.7H7.5C6.8 34.7 6.2 35.3 6.2 36C6.2 36.7 6.8 37.3 7.5 37.3H12.1C12.8 37.3 13.4 36.7 13.4 36C13.5 35.3 12.9 34.7 12.1 34.7Z" fill="#363B66"/>
<path d="M13.5 29.3H7.5C6.8 29.3 6.2 29.9 6.2 30.6C6.2 31.3 6.8 31.9 7.5 31.9H13.4C14.1 31.9 14.7 31.3 14.7 30.6C14.8 29.9 14.2 29.3 13.5 29.3Z" fill="#363B66"/>
<path d="M7.5 26.6H17.3C18 26.6 18.6 26 18.6 25.3C18.6 24.6 18 24 17.3 24H7.5C6.8 24 6.2 24.6 6.2 25.3C6.2 26 6.8 26.6 7.5 26.6Z" fill="#363B66"/>
<path d="M7.5 21.2H22.8C23.5 21.2 24.1 20.6 24.1 19.9C24.1 19.2 23.5 18.6 22.8 18.6H7.5C6.8 18.6 6.2 19.2 6.2 19.9C6.2 20.6 6.8 21.2 7.5 21.2Z" fill="#363B66"/>
<path d="M17.5 15.9H29.1C29.8 15.9 30.4 15.3 30.4 14.6C30.4 13.9 29.8 13.3 29.1 13.3H17.5C16.8 13.3 16.2 13.9 16.2 14.6C16.1 15.2 16.7 15.9 17.5 15.9Z" fill="#363B66"/>
<path d="M17.5 10.5H29.1C29.8 10.5 30.4 9.9 30.4 9.2C30.4 8.5 29.8 7.9 29.1 7.9H17.5C16.8 7.9 16.2 8.5 16.2 9.2C16.1 9.9 16.7 10.5 17.5 10.5Z" fill="#363B66"/>
</svg>
