<svg width="40" height="40" viewBox="0 0 40 40" fill="none" xmlns="http://www.w3.org/2000/svg">
<g>
<path d="M20.3 0C9.5 0 0.700001 8.8 0.700001 19.7C0.700001 23.1 1.6 26.5 3.3 29.5L1.37463e-06 39.1C-0.0999986 39.3 1.37836e-06 39.6 0.100001 39.8C0.300001 39.9 0.500001 40 0.700001 40C0.800001 40 0.800001 40 0.900001 40L11.5 37.2C14.3 38.6 17.3 39.3 20.4 39.3C31.2 39.3 40.1 30.5 40.1 19.6C40 8.8 31.2 0 20.3 0Z" fill="#3DD3A1"/>
<path d="M13.6 19.7C13.6 21.1 12.4 22.3 11 22.3C9.6 22.3 8.4 21.1 8.4 19.7C8.4 18.3 9.6 17.1 11 17.1C12.4 17 13.6 18.2 13.6 19.7Z" fill="white"/>
<path d="M22.9 19.7C22.9 21.1 21.7 22.3 20.3 22.3C18.9 22.3 17.7 21.1 17.7 19.7C17.7 18.3 18.9 17.1 20.3 17.1C21.8 17 22.9 18.2 22.9 19.7Z" fill="white"/>
<path d="M32.3 19.7C32.3 21.1 31.1 22.3 29.7 22.3C28.3 22.3 27.1 21.1 27.1 19.7C27.1 18.3 28.3 17.1 29.7 17.1C31.2 17 32.3 18.2 32.3 19.7Z" fill="white"/>
</g>
</svg>
