<svg xmlns="http://www.w3.org/2000/svg">
    <symbol id="app" viewBox="0 0 40 40">
       <g> <path d="M20.3 0C9.5 0 0.700001 8.8 0.700001 19.7C0.700001 23.1 1.6 26.5 3.3 29.5L1.37463e-06 39.1C-0.0999986 39.3 1.37836e-06 39.6 0.100001 39.8C0.300001 39.9 0.500001 40 0.700001 40C0.800001 40 0.800001 40 0.900001 40L11.5 37.2C14.3 38.6 17.3 39.3 20.4 39.3C31.2 39.3 40.1 30.5 40.1 19.6C40 8.8 31.2 0 20.3 0Z" fill="#97BA33"/> <path d="M24.9 7.8H15.8C14.4 7.8 13.3 8.9 13.3 10.3V28.3C13.3 29.7 14.4 30.8 15.8 30.8H24.9C26.3 30.8 27.4 29.7 27.4 28.3V10.3C27.4 8.9 26.3 7.8 24.9 7.8ZM20.4 29.9C19.6 29.9 19 29.3 19 28.5C19 27.7 19.6 27.1 20.4 27.1C21.2 27.1 21.8 27.7 21.8 28.5C21.8 29.3 21.2 29.9 20.4 29.9ZM25.1 25.2C25.1 25.6 24.7 26 24.3 26H16.4C16 26 15.6 25.7 15.6 25.2V10.2C15.6 9.8 16 9.4 16.4 9.4H24.3C24.7 9.4 25.1 9.7 25.1 10.2V25.2V25.2Z" fill="white"/> </g> 
    </symbol>
    <symbol id="chatbots" viewBox="0 0 40 40">
       <path d="M40 20C40 31 31 40 20 40C9 40 0 31 0 20C0 9 9 0 20 0C31 0 40 9 40 20Z" fill="#6AACCE"/> <path d="M30.3 17.3H29.5V16.2C29.5 14.5 28.1 13.1 26.3 13.1H21.1V10.5C21.8 10.1 22.2 9.4 22.2 8.5C22.2 7.2 21.2 6.2 19.9 6.2C18.6 6.2 17.6 7.2 17.6 8.5C17.6 9.3 18.1 10.1 18.7 10.5V13H13.5C11.8 13 10.4 14.4 10.4 16.1V17.2H9.7C8.7 17.2 7.9 18 7.9 19V22.8C7.9 23.8 8.7 24.6 9.7 24.6H10.5V25.7C10.5 27.4 11.9 28.8 13.6 28.8H15.1V30.5C15.1 31.5 15.9 32.3 16.9 32.3H23C24 32.3 24.8 31.5 24.8 30.5V28.8H26.3C28 28.8 29.5 27.4 29.5 25.7V24.6H30.3C31.3 24.6 32.1 23.8 32.1 22.8V19C32 18.1 31.2 17.3 30.3 17.3ZM13.1 18.5C13.1 17.3 14 16.4 15.2 16.4C16.4 16.4 17.3 17.3 17.3 18.5C17.3 19.7 16.4 20.6 15.2 20.6C14 20.6 13.1 19.6 13.1 18.5ZM22.8 26.1H17.1C16.2 26.1 15.4 25.3 15.4 24.4C15.4 23.5 16.2 22.7 17.1 22.7H22.8C23.7 22.7 24.5 23.5 24.5 24.4C24.6 25.3 23.8 26.1 22.8 26.1ZM24.8 20.6C23.6 20.6 22.7 19.7 22.7 18.5C22.7 17.3 23.6 16.4 24.8 16.4C26 16.4 26.9 17.3 26.9 18.5C26.9 19.6 26 20.6 24.8 20.6Z" fill="white"/> 
    </symbol>
    <symbol id="email" viewBox="0 0 40 40">
       <path d="M20 0C31 0 40 9 40 20C40 31 31 40 20 40C9 40 0 31 0 20C0 9 9 0 20 0Z" fill="#7296CD"/> <path d="M6.9 12.2V27.8L14.5 20L6.9 12.2Z" fill="white"/> <path d="M33.1 12.2V27.8L25.6 20L33.1 12.2Z" fill="white"/> <path d="M7.5 11.5H32.5L22.7 21.7C22 22.5 21 22.9 20 22.9C19 22.9 18 22.5 17.3 21.8L7.5 11.5Z" fill="white"/> <path d="M23.2 22.3C22.4 23.2 21.2 23.7 20 23.7C18.8 23.7 17.6 23.2 16.8 22.3L15.1 20.6L7.5 28.5H32.5L24.9 20.6L23.2 22.3Z" fill="white"/> 
    </symbol>
    <symbol id="feedback" viewBox="0 0 40 40">
       <path d="M20 0C9 0 0 9 0 20C0 31 9 40 20 40C31 40 40 31 40 20C40 9 31 0 20 0ZM12.5 13.7H24L23.9 13.6C23.3 13 23.3 12.1 23.9 11.5C24.5 10.9 25.4 10.9 25.9 11.5L28.6 14.2C28.6 14.2 28.6 14.2 28.6 14.3C28.7 14.4 28.8 14.6 28.9 14.7C29 14.9 29 15.1 29 15.3V15.4C29 15.5 29 15.6 29 15.7C28.9 15.9 28.8 16.1 28.6 16.3L25.9 19C25.6 19.3 25.3 19.4 24.9 19.4C24.5 19.4 24.2 19.2 23.9 19C23.3 18.4 23.4 17.5 23.9 16.9L24 16.7H12.5C11.7 16.7 11.1 16 11.1 15.2C11 14.3 11.7 13.7 12.5 13.7ZM27.6 26.3H16L16.1 26.5C16.7 27.1 16.7 28 16.1 28.6C15.8 28.9 15.4 29 15.1 29C14.7 29 14.4 28.9 14.1 28.6L11.4 25.9C11.4 25.9 11.4 25.9 11.3 25.9C11.1 25.7 11 25.5 10.9 25.3C10.9 25.2 10.8 25.1 10.8 24.9C10.8 24.7 10.9 24.6 10.9 24.4C11 24.2 11.1 24 11.3 23.9L14 21.2C14.6 20.6 15.5 20.6 16 21.2C16.6 21.8 16.5 22.7 16 23.3V23.4H27.5C28.3 23.4 28.9 24.1 28.9 24.9C29 25.6 28.4 26.3 27.6 26.3Z" fill="#DAB81A"/> 
    </symbol>
    <symbol id="in-01" viewBox="0 0 50 50">
       <path d="M48.2 10C47.1 8.9 45.5 8.2 43.9 8.2C42.3 8.2 40.8 8.8 39.6 10L36 13.6V1.7C36 1 35.4 0.4 34.7 0.4H12.1C11.7 0.4 11.4 0.5 11.1 0.8L0.4 11.5C0.1 11.8 0 12.1 0 12.5V48.7C0 49.4 0.6 50 1.4 50H34.7C35.4 50 36 49.4 36 48.7V30.7L48.2 18.5C49.3 17.4 50 15.8 50 14.2C50 12.7 49.4 11.1 48.2 10ZM23.3 38.3L18.8 39.5L20 35L23.3 38.3ZM25.9 37.1L21.1 32.3L38.2 15.2L43 20L25.9 37.1ZM10.8 5V11.2H4.6L10.8 5ZM33.3 47.3H2.7V13.8H12.1C12.8 13.8 13.4 13.2 13.4 12.5V3.1H33.3V16.3L18.3 31.4C18.1 31.6 18 31.8 17.9 32L15.5 41C15.4 41.5 15.5 42 15.9 42.3C16.2 42.6 16.5 42.7 16.9 42.7C17 42.7 17.1 42.7 17.2 42.7L26.2 40.3C26.4 40.2 26.7 40.1 26.8 39.9L33.3 33.4V47.3V47.3ZM46.3 16.7L44.9 18.1L40.1 13.3L41.5 11.9C42.1 11.3 43 10.9 43.9 10.9C44.8 10.9 45.6 11.2 46.3 11.9C46.9 12.5 47.3 13.4 47.3 14.3C47.3 15.2 47 16 46.3 16.7Z" fill="#363B66"/> <path d="M11.4 40.1H7.5C6.8 40.1 6.2 40.7 6.2 41.4C6.2 42.1 6.8 42.7 7.5 42.7H11.4C12.1 42.7 12.7 42.1 12.7 41.4C12.8 40.7 12.2 40.1 11.4 40.1Z" fill="#363B66"/> <path d="M12.1 34.7H7.5C6.8 34.7 6.2 35.3 6.2 36C6.2 36.7 6.8 37.3 7.5 37.3H12.1C12.8 37.3 13.4 36.7 13.4 36C13.5 35.3 12.9 34.7 12.1 34.7Z" fill="#363B66"/> <path d="M13.5 29.3H7.5C6.8 29.3 6.2 29.9 6.2 30.6C6.2 31.3 6.8 31.9 7.5 31.9H13.4C14.1 31.9 14.7 31.3 14.7 30.6C14.8 29.9 14.2 29.3 13.5 29.3Z" fill="#363B66"/> <path d="M7.5 26.6H17.3C18 26.6 18.6 26 18.6 25.3C18.6 24.6 18 24 17.3 24H7.5C6.8 24 6.2 24.6 6.2 25.3C6.2 26 6.8 26.6 7.5 26.6Z" fill="#363B66"/> <path d="M7.5 21.2H22.8C23.5 21.2 24.1 20.6 24.1 19.9C24.1 19.2 23.5 18.6 22.8 18.6H7.5C6.8 18.6 6.2 19.2 6.2 19.9C6.2 20.6 6.8 21.2 7.5 21.2Z" fill="#363B66"/> <path d="M17.5 15.9H29.1C29.8 15.9 30.4 15.3 30.4 14.6C30.4 13.9 29.8 13.3 29.1 13.3H17.5C16.8 13.3 16.2 13.9 16.2 14.6C16.1 15.2 16.7 15.9 17.5 15.9Z" fill="#363B66"/> <path d="M17.5 10.5H29.1C29.8 10.5 30.4 9.9 30.4 9.2C30.4 8.5 29.8 7.9 29.1 7.9H17.5C16.8 7.9 16.2 8.5 16.2 9.2C16.1 9.9 16.7 10.5 17.5 10.5Z" fill="#363B66"/> 
    </symbol>
    <symbol id="in-02" viewBox="0 0 50 50">
       <path d="M43.4 28.5L33.7 19.9C33.2 19.4 32.4 19.5 31.9 20C31.4 20.5 31.5 21.3 32 21.8L40.6 29.5L32 37.1C31.5 37.6 31.4 38.4 31.9 38.9C32.2 39.2 32.5 39.3 32.9 39.3C33.2 39.3 33.5 39.2 33.8 39L43.5 30.4C43.8 30.2 43.9 29.8 43.9 29.4C43.8 29.1 43.6 28.7 43.4 28.5Z" fill="#363B66"/> <path d="M18.1 19.9C17.6 19.4 16.8 19.3 16.3 19.8L6.6 28.4C6.3 28.6 6.2 29 6.2 29.4C6.2 29.8 6.4 30.1 6.6 30.4L16.3 39C16.5 39.2 16.8 39.3 17.2 39.3C17.6 39.3 17.9 39.2 18.2 38.9C18.7 38.4 18.6 37.6 18.1 37.1L9.5 29.4L18.1 21.7C18.6 21.3 18.6 20.5 18.1 19.9Z" fill="#363B66"/> <path d="M28.1 19.2C27.4 19 26.7 19.4 26.5 20.1L21.1 37.9C20.9 38.6 21.3 39.3 22 39.5C22.1 39.5 22.2 39.6 22.4 39.6C23 39.6 23.5 39.2 23.6 38.7L29 20.9C29.1 20.1 28.7 19.4 28.1 19.2Z" fill="#363B66"/> <path d="M48.7 0H1.3C0.6 0 0 0.6 0 1.3V48.7C0 49.4 0.6 50 1.3 50H48.7C49.4 50 50 49.4 50 48.7V1.3C50 0.6 49.4 0 48.7 0ZM47.4 7.7H42.3V2.6H47.4V7.7ZM10.3 2.6H39.8V7.7H10.3V2.6ZM2.6 2.6H7.7V7.7H2.6V2.6ZM2.6 10.3H47.5V47.5H2.6V10.3Z" fill="#363B66"/> 
    </symbol>
    <symbol id="msn" viewBox="0 0 40 40">
       <g> <path d="M20.3 0C9.5 0 0.700001 8.8 0.700001 19.7C0.700001 23.1 1.6 26.5 3.3 29.5L1.37463e-06 39.1C-0.0999986 39.3 1.37836e-06 39.6 0.100001 39.8C0.300001 39.9 0.500001 40 0.700001 40C0.800001 40 0.800001 40 0.900001 40L11.5 37.2C14.3 38.6 17.3 39.3 20.4 39.3C31.2 39.3 40.1 30.5 40.1 19.6C40 8.8 31.2 0 20.3 0Z" fill="#3DD3A1"/> <path d="M13.6 19.7C13.6 21.1 12.4 22.3 11 22.3C9.6 22.3 8.4 21.1 8.4 19.7C8.4 18.3 9.6 17.1 11 17.1C12.4 17 13.6 18.2 13.6 19.7Z" fill="white"/> <path d="M22.9 19.7C22.9 21.1 21.7 22.3 20.3 22.3C18.9 22.3 17.7 21.1 17.7 19.7C17.7 18.3 18.9 17.1 20.3 17.1C21.8 17 22.9 18.2 22.9 19.7Z" fill="white"/> <path d="M32.3 19.7C32.3 21.1 31.1 22.3 29.7 22.3C28.3 22.3 27.1 21.1 27.1 19.7C27.1 18.3 28.3 17.1 29.7 17.1C31.2 17 32.3 18.2 32.3 19.7Z" fill="white"/> </g> 
    </symbol>
    <symbol id="sn" viewBox="0 0 40 40">
       <path d="M20 0C9 0 0 9 0 20C0 31 9 40 20 40C31 40 40 31 40 20C40 9 31 0 20 0ZM17.8 20C17.8 20.4 17.7 20.8 17.6 21.2L23.2 23.9C23.8 23.2 24.8 22.8 25.8 22.8C27.7 22.8 29.3 24.4 29.3 26.3C29.3 28.2 27.7 29.8 25.8 29.8C23.9 29.8 22.3 28.2 22.3 26.3C22.3 26.1 22.3 25.9 22.3 25.8L16.4 22.9C15.8 23.3 15.1 23.6 14.3 23.6C12.4 23.6 10.8 22 10.8 20.1C10.8 18.2 12.4 16.6 14.3 16.6C15.1 16.6 15.8 16.9 16.4 17.3L22.3 14.4C22.3 14.2 22.3 14 22.3 13.9C22.3 12 23.9 10.4 25.8 10.4C27.7 10.4 29.3 12 29.3 13.9C29.3 15.8 27.7 17.4 25.8 17.4C24.8 17.4 23.9 17 23.2 16.3L17.6 19C17.7 19.2 17.8 19.6 17.8 20Z" fill="#3B4269"/> 
    </symbol>
    <symbol id="step_01" viewBox="0 0 74 74">
       <path d="M37 74C57.4345 74 74 57.4345 74 37C74 16.5655 57.4345 0 37 0C16.5655 0 0 16.5655 0 37C0 57.4345 16.5655 74 37 74Z" fill="#2CD3B8"/> <path d="M41.8 37.5C45.3 37.5 48.2 34.7 48.2 31.2C48.2 27.8 45.3 25 41.8 25C38.3 25 35.4 27.8 35.4 31.2C35.4 34.7 38.3 37.5 41.8 37.5ZM27.5 34.4V29.7H24.3V34.4H19.5V37.5H24.3V42.2H27.5V37.5H32.3V34.4H27.5ZM41.8 40.6C37.5 40.6 29.1 42.6 29.1 46.8V50H54.6V46.9C54.5 42.7 46.1 40.6 41.8 40.6Z" fill="white"/> 
    </symbol>
    <symbol id="step_02" viewBox="0 0 74 74">
       <path d="M37 74C57.4345 74 74 57.4345 74 37C74 16.5655 57.4345 0 37 0C16.5655 0 0 16.5655 0 37C0 57.4345 16.5655 74 37 74Z" fill="#2CD3B8"/> <path d="M47.1 25.5L32.6 39.8L27 34.3L22.6 38.7L32.7 48.6L51.6 30L47.1 25.5Z" fill="white"/> 
    </symbol>
    <symbol id="step_03" viewBox="0 0 74 74">
       <path d="M37 74C57.4345 74 74 57.4345 74 37C74 16.5655 57.4345 0 37 0C16.5655 0 0 16.5655 0 37C0 57.4345 16.5655 74 37 74Z" fill="#2CD3B8"/> <path d="M54.9 35C54.8 34.5 54.3 34.1 53.7 34.1C52.1 34.1 50.6 33.1 50 31.6C49.4 30.1 49.8 28.3 51 27.1C51.4 26.7 51.4 26.2 51.1 25.7C50.3 24.6 49.3 23.7 48.2 22.8C47.8 22.5 47.2 22.5 46.8 22.9C45.7 24.1 43.8 24.5 42.3 23.9C40.8 23.2 39.8 21.7 39.9 20C39.9 19.5 39.5 19 39 18.9C37.7 18.7 36.3 18.7 35 18.9C34.5 19 34.1 19.4 34.1 19.9C34.2 21.6 33.2 23.1 31.6 23.7C30.1 24.3 28.2 23.9 27.1 22.7C26.7 22.3 26.2 22.3 25.7 22.6C24.6 23.4 23.6 24.4 22.8 25.5C22.5 25.9 22.5 26.5 22.9 26.9C24.2 28 24.6 29.8 23.9 31.4C23.3 32.9 21.7 33.8 20 33.8C19.4 33.8 19 34.2 19 34.7C18.8 36.1 18.8 37.4 19 38.8C19.1 39.3 19.7 39.7 20.2 39.7C21.8 39.7 23.3 40.6 23.9 42.2C24.5 43.7 24.1 45.5 22.9 46.7C22.5 47.1 22.5 47.6 22.8 48.1C23.6 49.2 24.6 50.1 25.6 51C26 51.3 26.6 51.3 27 50.9C28.1 49.7 30 49.3 31.5 49.9C33.1 50.5 34 52.1 33.9 53.8C33.9 54.3 34.3 54.8 34.8 54.9C35.6 55 36.3 55 37 55C37.7 55 38.3 55 39 54.9C39.5 54.8 39.9 54.4 39.9 53.9C39.8 52.2 40.8 50.7 42.4 50.1C43.9 49.5 45.8 49.9 46.9 51.1C47.3 51.5 47.8 51.5 48.3 51.2C49.4 50.4 50.4 49.4 51.2 48.3C51.5 47.9 51.5 47.3 51.1 46.9C49.8 45.8 49.4 44 50.1 42.4C50.5 41 52 40 53.6 40H53.8C54.3 40 54.8 39.6 54.9 39.1C55 37.7 55 36.4 54.9 35ZM37 47.4C31.3 47.4 26.6 42.8 26.6 37C26.6 31.2 31.3 26.6 37 26.6C42.7 26.6 47.4 31.3 47.4 37C47.4 38.9 46.9 40.8 45.9 42.3L41.4 37.8C41.7 37 41.9 36.2 41.9 35.3C41.9 33.6 41.2 32 40 30.8C38.8 29.6 37.2 28.9 35.5 28.9C34.9 28.9 34.4 29 33.8 29.1C33.6 29.2 33.4 29.4 33.3 29.6C33.2 29.8 33.3 30.1 33.5 30.3C33.5 30.3 35.7 32.6 36.5 33.3C36.6 33.4 36.6 33.6 36.6 33.6C36.5 34.4 36.4 35.4 36.3 35.8C36.3 35.8 36.3 35.8 36.3 35.9C35.9 36 34.9 36.2 34.1 36.2C34 36.2 33.9 36.2 33.8 36.1C33 35.3 30.9 33.2 30.9 33.2C30.7 33 30.5 33 30.4 33C30.1 33 29.8 33.2 29.7 33.5C29.1 35.7 29.7 38.1 31.3 39.7C32.5 40.9 34.1 41.6 35.8 41.6C36.7 41.6 37.5 41.4 38.3 41.1L42.9 45.7C41 46.8 39.1 47.4 37 47.4Z" fill="white"/> 
    </symbol>
    <symbol id="step_04" viewBox="0 0 74 74">
       <path d="M37 74C57.4345 74 74 57.4345 74 37C74 16.5655 57.4345 0 37 0C16.5655 0 0 16.5655 0 37C0 57.4345 16.5655 74 37 74Z" fill="#2CD3B8"/> <path fill-rule="evenodd" clip-rule="evenodd" d="M57 26.3L56.7 28.8C56.6 29.6 56.5 30.4 56.3 31.2L56.2 31.7C55.8 34 55.5 35.9 55.1 37.6C54.7 39.5 54.2 41.6 53.6 43.7C53.2 44.9 52.9 45.9 52.5 46.8C52.3 47.4 52 47.9 51.8 48.4C51.5 48.9 51.2 49.4 50.7 50C50.5 50.3 50.2 50.5 49.9 50.7C49.7 50.9 49.3 51 48.8 51.1C48.4 51.2 48 51.1 47.7 51C47.4 50.9 47.1 50.7 46.8 50.5C46.2 50 45.8 49.5 45.5 49.1C45.1 48.6 44.8 48 44.6 47.6C44 46.5 43.6 45.4 43.2 44.6C42.8 43.6 42.4 42.5 42 41.6C41.8 41 41.6 40.4 41.4 39.8C40.9 38.4 40.4 37 39.9 35.7C39.5 34.6 39.1 33.8 38.7 33.1C38.7 33 38.6 32.9 38.5 32.8C38.5 32.8 38.5 32.7 38.4 32.7C38.4 32.7 38.4 32.6 38.3 32.6C37.4 31.3 36.3 31.4 35.5 33.5C35.3 33.9 35.2 34.3 35 34.8L34.5 36C34.1 37.1 33.8 38.1 33.4 39C32.9 40.2 32.5 41 32 41.8C31.5 42.5 30.9 43.5 30 44.2C29.5 44.6 29.1 44.8 28.6 45C28.1 45.2 27.6 45.2 27 45.1C26.5 45 26.1 44.8 25.6 44.6C25.2 44.4 24.8 44.1 24.5 43.7C23.9 43.1 23.3 42.4 22.8 41.5C22.3 40.8 21.9 40 21.5 39.2C20.7 37.5 20 35.8 19.6 34.6C18.5 31.5 17.7 28.7 17.2 26.6C17.2 26.5 17.2 26.4 17.1 26.4C17.1 26.3 17.1 26.2 17.2 26.1C17.3 26 17.4 26 17.5 26H17.6C17.7 26 17.8 26.1 17.8 26.3C18.6 28.4 19.4 30.8 20.8 33.7C21.5 35.2 22.2 36.6 23 37.9C23.4 38.6 23.9 39.3 24.3 39.9C24.9 40.6 25.3 41.1 25.8 41.5C26.4 42 26.9 42.2 27.4 42.3C27.9 42.3 28.3 42.1 28.8 41.7C29.3 41.2 29.8 40.5 30.1 39.9C30.5 39.2 30.8 38.4 31.2 37.5C31.5 36.7 31.8 35.8 32.1 34.8L32.6 33.3C32.8 32.8 33 32.3 33.2 31.8C33.4 31.2 33.7 30.7 33.9 30.2C34.1 29.7 34.5 29.2 34.9 28.7C35.1 28.4 35.4 28.2 35.7 28C36 27.7 36.4 27.6 36.8 27.5C37.2 27.4 37.6 27.4 38 27.5C38.3 27.6 38.7 27.8 39 28C39.6 28.5 40 29 40.3 29.4C40.6 29.8 40.9 30.3 41.2 30.9C41.8 32 42.2 33 42.6 33.9C42.7 34 42.7 34.2 42.8 34.3C43.4 35.7 43.9 37.1 44.4 38.5L44.9 39.8C45.6 41.6 46.3 43.6 47.2 45.3C47.4 45.8 47.7 46.1 47.8 46.4C48.9 48.1 49.6 46.6 49.8 46.2C50 45.9 50.2 45.5 50.4 45C50.7 44.2 51.1 43.4 51.4 42.3C52 40.6 52.5 38.6 53 36.6C53.5 34.7 53.9 32.8 54.3 30.9L54.4 30.5C54.6 29.7 54.8 28.9 54.9 28.1L55.4 25.8V25.6C55.5 25.2 55.9 24.9 56.3 24.9C56.8 24.9 57.2 25.3 57.2 25.8L57 26.3Z" fill="white"/> 
    </symbol>
    <symbol id="step_05" viewBox="0 0 74 74">
       <path d="M37 74C57.4345 74 74 57.4345 74 37C74 16.5655 57.4345 0 37 0C16.5655 0 0 16.5655 0 37C0 57.4345 16.5655 74 37 74Z" fill="#2CD3B8"/> <path d="M51.5 34H50.9V43.4H51.5C52.4 43.4 53.1 42.7 53.1 41.8V35.5C53 34.7 52.3 34 51.5 34ZM21 35.6V41.7C21 42.6 21.7 43.4 22.6 43.4H23.2V34H22.6C21.7 34 21 34.7 21 35.6ZM49.4 35.3C49.4 34.6 49.3 33.9 49.2 33.2C49.2 33 49.1 32.7 49 32.5V30.7C49 23.9 43.6 18.4 37 18.4C30.4 18.4 25 24 25 30.8V32C24.9 32.2 24.9 32.3 24.8 32.5C24.6 33.4 24.4 34.4 24.4 35.3V46.9C24.4 47.4 24.8 47.7 25.2 47.7H27.7C28.5 52.1 32.4 55.5 37 55.5C40.6 55.5 43.8 53.4 45.4 50.3C48.1 50.1 50.3 47.8 50.3 45H49.4V35.3ZM43.9 47.9H38C37.3 47.9 36.8 48.5 36.8 49.1C36.8 49.8 37.3 50.3 38 50.3H42.6C41.3 52 39.3 53 37.1 53C33.2 53 30.1 49.8 30.1 45.8V38C31 37.4 32.6 36.3 33.7 34.8C35.4 36.2 38.8 38.3 44.2 38.5V45.8C44.1 46.5 44 47.2 43.9 47.9ZM38.8 24.4H35.2C32.5 24.4 30 25.4 28.2 27.1C29.5 23.5 33 21 37 21C41.1 21 44.7 23.7 46 27.4C44.2 25.6 41.6 24.4 38.8 24.4ZM34.6 40.3H32.7C32 40.3 31.5 40.9 31.5 41.5C31.5 42.2 32 42.7 32.7 42.7H34.6C35.3 42.7 35.8 42.1 35.8 41.5C35.8 40.9 35.2 40.3 34.6 40.3ZM41.4 40.3H39.5C38.8 40.3 38.3 40.9 38.3 41.5C38.3 42.2 38.8 42.7 39.5 42.7H41.4C42.1 42.7 42.6 42.1 42.6 41.5C42.6 40.9 42 40.3 41.4 40.3Z" fill="white"/> 
    </symbol>
    <symbol id="step_06" viewBox="0 0 74 74">
       <path d="M37 74C57.4345 74 74 57.4345 74 37C74 16.5655 57.4345 0 37 0C16.5655 0 0 16.5655 0 37C0 57.4345 16.5655 74 37 74Z" fill="#2CD3B8"/> <path d="M41.6 49H38.2V46H35.8V49H32.4C31.7 49 31.2 49.6 31.2 50.2C31.2 50.9 31.7 51.4 32.4 51.4H41.6C42.3 51.4 42.8 50.8 42.8 50.2C42.8 49.6 42.3 49 41.6 49ZM21 42V43.5C21 44 21.4 44.5 22 44.5H52C52.5 44.5 53 44.1 53 43.5V42H21ZM37 26.7C39.6 26.7 42 27.4 44.1 28.7L44.9 27.6C45.2 27.2 45.7 27.2 46 27.4C46.4 27.7 46.4 28.2 46.2 28.5L45.4 29.6C48.6 32.1 50.6 35.9 50.7 40.3H53V23.5C53 23 52.6 22.5 52 22.5H22C21.5 22.5 21 22.9 21 23.5V40.4H23.3C23.4 32.8 29.5 26.7 37 26.7ZM44 39.8C43.9 39.7 43.9 39.6 43.9 39.5C43.6 37.7 42.7 36.2 41.4 35.2L39 38.5C39.4 38.8 39.7 39.3 39.9 39.8H44ZM37 37.8C37.2 37.8 37.3 37.8 37.5 37.8L40.1 34.3C39.2 33.8 38.1 33.6 37 33.6C35 33.6 33.2 34.4 31.9 35.8C31.9 35.9 31.8 35.9 31.8 36C31 37 30.4 38.2 30.2 39.5C30.2 39.6 30.1 39.7 30.1 39.8H34.2C34.5 38.6 35.7 37.8 37 37.8ZM49.1 39.8C48.9 36.2 47.1 33.1 44.5 31L42.4 33.9C42.5 34 42.5 34 42.6 34.1C44.1 35.4 45.2 37.3 45.5 39.3C45.5 39.5 45.5 39.7 45.4 39.9H49.1V39.8ZM27.2 33.4C25.9 35.2 25 37.4 24.9 39.8H28.6C28.5 39.6 28.4 39.4 28.5 39.2C28.7 37.9 29.3 36.6 30.1 35.5L27.2 33.4ZM31.4 34C32.8 32.8 34.4 32.1 36.2 32V28.4C33.1 28.6 30.3 30 28.3 32.1L31.2 34.2C31.2 34.2 31.3 34.1 31.4 34ZM43.1 30.1C41.5 29.2 39.7 28.6 37.8 28.5V32C38.9 32.1 40 32.4 41 33L43.1 30.1Z" fill="white"/> 
    </symbol></svg>