<svg width="40" height="40" viewBox="0 0 40 40" fill="none" xmlns="http://www.w3.org/2000/svg">
<path d="M20 0C31 0 40 9 40 20C40 31 31 40 20 40C9 40 0 31 0 20C0 9 9 0 20 0Z" fill="#7296CD"/>
<path d="M6.9 12.2V27.8L14.5 20L6.9 12.2Z" fill="white"/>
<path d="M33.1 12.2V27.8L25.6 20L33.1 12.2Z" fill="white"/>
<path d="M7.5 11.5H32.5L22.7 21.7C22 22.5 21 22.9 20 22.9C19 22.9 18 22.5 17.3 21.8L7.5 11.5Z" fill="white"/>
<path d="M23.2 22.3C22.4 23.2 21.2 23.7 20 23.7C18.8 23.7 17.6 23.2 16.8 22.3L15.1 20.6L7.5 28.5H32.5L24.9 20.6L23.2 22.3Z" fill="white"/>
</svg>
