<svg width="50" height="50" viewBox="0 0 50 50" fill="none" xmlns="http://www.w3.org/2000/svg">
<path d="M43.4 28.5L33.7 19.9C33.2 19.4 32.4 19.5 31.9 20C31.4 20.5 31.5 21.3 32 21.8L40.6 29.5L32 37.1C31.5 37.6 31.4 38.4 31.9 38.9C32.2 39.2 32.5 39.3 32.9 39.3C33.2 39.3 33.5 39.2 33.8 39L43.5 30.4C43.8 30.2 43.9 29.8 43.9 29.4C43.8 29.1 43.6 28.7 43.4 28.5Z" fill="#363B66"/>
<path d="M18.1 19.9C17.6 19.4 16.8 19.3 16.3 19.8L6.6 28.4C6.3 28.6 6.2 29 6.2 29.4C6.2 29.8 6.4 30.1 6.6 30.4L16.3 39C16.5 39.2 16.8 39.3 17.2 39.3C17.6 39.3 17.9 39.2 18.2 38.9C18.7 38.4 18.6 37.6 18.1 37.1L9.5 29.4L18.1 21.7C18.6 21.3 18.6 20.5 18.1 19.9Z" fill="#363B66"/>
<path d="M28.1 19.2C27.4 19 26.7 19.4 26.5 20.1L21.1 37.9C20.9 38.6 21.3 39.3 22 39.5C22.1 39.5 22.2 39.6 22.4 39.6C23 39.6 23.5 39.2 23.6 38.7L29 20.9C29.1 20.1 28.7 19.4 28.1 19.2Z" fill="#363B66"/>
<path d="M48.7 0H1.3C0.6 0 0 0.6 0 1.3V48.7C0 49.4 0.6 50 1.3 50H48.7C49.4 50 50 49.4 50 48.7V1.3C50 0.6 49.4 0 48.7 0ZM47.4 7.7H42.3V2.6H47.4V7.7ZM10.3 2.6H39.8V7.7H10.3V2.6ZM2.6 2.6H7.7V7.7H2.6V2.6ZM2.6 10.3H47.5V47.5H2.6V10.3Z" fill="#363B66"/>
</svg>
