<svg width="40" height="40" viewBox="0 0 40 40" fill="none" xmlns="http://www.w3.org/2000/svg">
<path d="M20 0C9 0 0 9 0 20C0 31 9 40 20 40C31 40 40 31 40 20C40 9 31 0 20 0ZM17.8 20C17.8 20.4 17.7 20.8 17.6 21.2L23.2 23.9C23.8 23.2 24.8 22.8 25.8 22.8C27.7 22.8 29.3 24.4 29.3 26.3C29.3 28.2 27.7 29.8 25.8 29.8C23.9 29.8 22.3 28.2 22.3 26.3C22.3 26.1 22.3 25.9 22.3 25.8L16.4 22.9C15.8 23.3 15.1 23.6 14.3 23.6C12.4 23.6 10.8 22 10.8 20.1C10.8 18.2 12.4 16.6 14.3 16.6C15.1 16.6 15.8 16.9 16.4 17.3L22.3 14.4C22.3 14.2 22.3 14 22.3 13.9C22.3 12 23.9 10.4 25.8 10.4C27.7 10.4 29.3 12 29.3 13.9C29.3 15.8 27.7 17.4 25.8 17.4C24.8 17.4 23.9 17 23.2 16.3L17.6 19C17.7 19.2 17.8 19.6 17.8 20Z" fill="#3B4269"/>
</svg>
