<svg width="74" height="74" viewBox="0 0 74 74" fill="none" xmlns="http://www.w3.org/2000/svg">
<path d="M37 74C57.4345 74 74 57.4345 74 37C74 16.5655 57.4345 0 37 0C16.5655 0 0 16.5655 0 37C0 57.4345 16.5655 74 37 74Z" fill="#2CD3B8"/>
<path d="M41.8 37.5C45.3 37.5 48.2 34.7 48.2 31.2C48.2 27.8 45.3 25 41.8 25C38.3 25 35.4 27.8 35.4 31.2C35.4 34.7 38.3 37.5 41.8 37.5ZM27.5 34.4V29.7H24.3V34.4H19.5V37.5H24.3V42.2H27.5V37.5H32.3V34.4H27.5ZM41.8 40.6C37.5 40.6 29.1 42.6 29.1 46.8V50H54.6V46.9C54.5 42.7 46.1 40.6 41.8 40.6Z" fill="white"/>
</svg>
