<svg width="74" height="74" viewBox="0 0 74 74" fill="none" xmlns="http://www.w3.org/2000/svg">
<path d="M37 74C57.4345 74 74 57.4345 74 37C74 16.5655 57.4345 0 37 0C16.5655 0 0 16.5655 0 37C0 57.4345 16.5655 74 37 74Z" fill="#2CD3B8"/>
<path d="M54.9 35C54.8 34.5 54.3 34.1 53.7 34.1C52.1 34.1 50.6 33.1 50 31.6C49.4 30.1 49.8 28.3 51 27.1C51.4 26.7 51.4 26.2 51.1 25.7C50.3 24.6 49.3 23.7 48.2 22.8C47.8 22.5 47.2 22.5 46.8 22.9C45.7 24.1 43.8 24.5 42.3 23.9C40.8 23.2 39.8 21.7 39.9 20C39.9 19.5 39.5 19 39 18.9C37.7 18.7 36.3 18.7 35 18.9C34.5 19 34.1 19.4 34.1 19.9C34.2 21.6 33.2 23.1 31.6 23.7C30.1 24.3 28.2 23.9 27.1 22.7C26.7 22.3 26.2 22.3 25.7 22.6C24.6 23.4 23.6 24.4 22.8 25.5C22.5 25.9 22.5 26.5 22.9 26.9C24.2 28 24.6 29.8 23.9 31.4C23.3 32.9 21.7 33.8 20 33.8C19.4 33.8 19 34.2 19 34.7C18.8 36.1 18.8 37.4 19 38.8C19.1 39.3 19.7 39.7 20.2 39.7C21.8 39.7 23.3 40.6 23.9 42.2C24.5 43.7 24.1 45.5 22.9 46.7C22.5 47.1 22.5 47.6 22.8 48.1C23.6 49.2 24.6 50.1 25.6 51C26 51.3 26.6 51.3 27 50.9C28.1 49.7 30 49.3 31.5 49.9C33.1 50.5 34 52.1 33.9 53.8C33.9 54.3 34.3 54.8 34.8 54.9C35.6 55 36.3 55 37 55C37.7 55 38.3 55 39 54.9C39.5 54.8 39.9 54.4 39.9 53.9C39.8 52.2 40.8 50.7 42.4 50.1C43.9 49.5 45.8 49.9 46.9 51.1C47.3 51.5 47.8 51.5 48.3 51.2C49.4 50.4 50.4 49.4 51.2 48.3C51.5 47.9 51.5 47.3 51.1 46.9C49.8 45.8 49.4 44 50.1 42.4C50.5 41 52 40 53.6 40H53.8C54.3 40 54.8 39.6 54.9 39.1C55 37.7 55 36.4 54.9 35ZM37 47.4C31.3 47.4 26.6 42.8 26.6 37C26.6 31.2 31.3 26.6 37 26.6C42.7 26.6 47.4 31.3 47.4 37C47.4 38.9 46.9 40.8 45.9 42.3L41.4 37.8C41.7 37 41.9 36.2 41.9 35.3C41.9 33.6 41.2 32 40 30.8C38.8 29.6 37.2 28.9 35.5 28.9C34.9 28.9 34.4 29 33.8 29.1C33.6 29.2 33.4 29.4 33.3 29.6C33.2 29.8 33.3 30.1 33.5 30.3C33.5 30.3 35.7 32.6 36.5 33.3C36.6 33.4 36.6 33.6 36.6 33.6C36.5 34.4 36.4 35.4 36.3 35.8C36.3 35.8 36.3 35.8 36.3 35.9C35.9 36 34.9 36.2 34.1 36.2C34 36.2 33.9 36.2 33.8 36.1C33 35.3 30.9 33.2 30.9 33.2C30.7 33 30.5 33 30.4 33C30.1 33 29.8 33.2 29.7 33.5C29.1 35.7 29.7 38.1 31.3 39.7C32.5 40.9 34.1 41.6 35.8 41.6C36.7 41.6 37.5 41.4 38.3 41.1L42.9 45.7C41 46.8 39.1 47.4 37 47.4Z" fill="white"/>
</svg>
