<svg width="74" height="74" viewBox="0 0 74 74" fill="none" xmlns="http://www.w3.org/2000/svg">
<path d="M37 74C57.4345 74 74 57.4345 74 37C74 16.5655 57.4345 0 37 0C16.5655 0 0 16.5655 0 37C0 57.4345 16.5655 74 37 74Z" fill="#2CD3B8"/>
<path d="M41.6 49H38.2V46H35.8V49H32.4C31.7 49 31.2 49.6 31.2 50.2C31.2 50.9 31.7 51.4 32.4 51.4H41.6C42.3 51.4 42.8 50.8 42.8 50.2C42.8 49.6 42.3 49 41.6 49ZM21 42V43.5C21 44 21.4 44.5 22 44.5H52C52.5 44.5 53 44.1 53 43.5V42H21ZM37 26.7C39.6 26.7 42 27.4 44.1 28.7L44.9 27.6C45.2 27.2 45.7 27.2 46 27.4C46.4 27.7 46.4 28.2 46.2 28.5L45.4 29.6C48.6 32.1 50.6 35.9 50.7 40.3H53V23.5C53 23 52.6 22.5 52 22.5H22C21.5 22.5 21 22.9 21 23.5V40.4H23.3C23.4 32.8 29.5 26.7 37 26.7ZM44 39.8C43.9 39.7 43.9 39.6 43.9 39.5C43.6 37.7 42.7 36.2 41.4 35.2L39 38.5C39.4 38.8 39.7 39.3 39.9 39.8H44ZM37 37.8C37.2 37.8 37.3 37.8 37.5 37.8L40.1 34.3C39.2 33.8 38.1 33.6 37 33.6C35 33.6 33.2 34.4 31.9 35.8C31.9 35.9 31.8 35.9 31.8 36C31 37 30.4 38.2 30.2 39.5C30.2 39.6 30.1 39.7 30.1 39.8H34.2C34.5 38.6 35.7 37.8 37 37.8ZM49.1 39.8C48.9 36.2 47.1 33.1 44.5 31L42.4 33.9C42.5 34 42.5 34 42.6 34.1C44.1 35.4 45.2 37.3 45.5 39.3C45.5 39.5 45.5 39.7 45.4 39.9H49.1V39.8ZM27.2 33.4C25.9 35.2 25 37.4 24.9 39.8H28.6C28.5 39.6 28.4 39.4 28.5 39.2C28.7 37.9 29.3 36.6 30.1 35.5L27.2 33.4ZM31.4 34C32.8 32.8 34.4 32.1 36.2 32V28.4C33.1 28.6 30.3 30 28.3 32.1L31.2 34.2C31.2 34.2 31.3 34.1 31.4 34ZM43.1 30.1C41.5 29.2 39.7 28.6 37.8 28.5V32C38.9 32.1 40 32.4 41 33L43.1 30.1Z" fill="white"/>
</svg>
