<svg width="74" height="74" viewBox="0 0 74 74" fill="none" xmlns="http://www.w3.org/2000/svg">
<path d="M37 74C57.4345 74 74 57.4345 74 37C74 16.5655 57.4345 0 37 0C16.5655 0 0 16.5655 0 37C0 57.4345 16.5655 74 37 74Z" fill="#2CD3B8"/>
<path fill-rule="evenodd" clip-rule="evenodd" d="M57 26.3L56.7 28.8C56.6 29.6 56.5 30.4 56.3 31.2L56.2 31.7C55.8 34 55.5 35.9 55.1 37.6C54.7 39.5 54.2 41.6 53.6 43.7C53.2 44.9 52.9 45.9 52.5 46.8C52.3 47.4 52 47.9 51.8 48.4C51.5 48.9 51.2 49.4 50.7 50C50.5 50.3 50.2 50.5 49.9 50.7C49.7 50.9 49.3 51 48.8 51.1C48.4 51.2 48 51.1 47.7 51C47.4 50.9 47.1 50.7 46.8 50.5C46.2 50 45.8 49.5 45.5 49.1C45.1 48.6 44.8 48 44.6 47.6C44 46.5 43.6 45.4 43.2 44.6C42.8 43.6 42.4 42.5 42 41.6C41.8 41 41.6 40.4 41.4 39.8C40.9 38.4 40.4 37 39.9 35.7C39.5 34.6 39.1 33.8 38.7 33.1C38.7 33 38.6 32.9 38.5 32.8C38.5 32.8 38.5 32.7 38.4 32.7C38.4 32.7 38.4 32.6 38.3 32.6C37.4 31.3 36.3 31.4 35.5 33.5C35.3 33.9 35.2 34.3 35 34.8L34.5 36C34.1 37.1 33.8 38.1 33.4 39C32.9 40.2 32.5 41 32 41.8C31.5 42.5 30.9 43.5 30 44.2C29.5 44.6 29.1 44.8 28.6 45C28.1 45.2 27.6 45.2 27 45.1C26.5 45 26.1 44.8 25.6 44.6C25.2 44.4 24.8 44.1 24.5 43.7C23.9 43.1 23.3 42.4 22.8 41.5C22.3 40.8 21.9 40 21.5 39.2C20.7 37.5 20 35.8 19.6 34.6C18.5 31.5 17.7 28.7 17.2 26.6C17.2 26.5 17.2 26.4 17.1 26.4C17.1 26.3 17.1 26.2 17.2 26.1C17.3 26 17.4 26 17.5 26H17.6C17.7 26 17.8 26.1 17.8 26.3C18.6 28.4 19.4 30.8 20.8 33.7C21.5 35.2 22.2 36.6 23 37.9C23.4 38.6 23.9 39.3 24.3 39.9C24.9 40.6 25.3 41.1 25.8 41.5C26.4 42 26.9 42.2 27.4 42.3C27.9 42.3 28.3 42.1 28.8 41.7C29.3 41.2 29.8 40.5 30.1 39.9C30.5 39.2 30.8 38.4 31.2 37.5C31.5 36.7 31.8 35.8 32.1 34.8L32.6 33.3C32.8 32.8 33 32.3 33.2 31.8C33.4 31.2 33.7 30.7 33.9 30.2C34.1 29.7 34.5 29.2 34.9 28.7C35.1 28.4 35.4 28.2 35.7 28C36 27.7 36.4 27.6 36.8 27.5C37.2 27.4 37.6 27.4 38 27.5C38.3 27.6 38.7 27.8 39 28C39.6 28.5 40 29 40.3 29.4C40.6 29.8 40.9 30.3 41.2 30.9C41.8 32 42.2 33 42.6 33.9C42.7 34 42.7 34.2 42.8 34.3C43.4 35.7 43.9 37.1 44.4 38.5L44.9 39.8C45.6 41.6 46.3 43.6 47.2 45.3C47.4 45.8 47.7 46.1 47.8 46.4C48.9 48.1 49.6 46.6 49.8 46.2C50 45.9 50.2 45.5 50.4 45C50.7 44.2 51.1 43.4 51.4 42.3C52 40.6 52.5 38.6 53 36.6C53.5 34.7 53.9 32.8 54.3 30.9L54.4 30.5C54.6 29.7 54.8 28.9 54.9 28.1L55.4 25.8V25.6C55.5 25.2 55.9 24.9 56.3 24.9C56.8 24.9 57.2 25.3 57.2 25.8L57 26.3Z" fill="white"/>
</svg>
