<svg width="74" height="74" viewBox="0 0 74 74" fill="none" xmlns="http://www.w3.org/2000/svg">
<path d="M37 74C57.4345 74 74 57.4345 74 37C74 16.5655 57.4345 0 37 0C16.5655 0 0 16.5655 0 37C0 57.4345 16.5655 74 37 74Z" fill="#2CD3B8"/>
<path d="M51.5 34H50.9V43.4H51.5C52.4 43.4 53.1 42.7 53.1 41.8V35.5C53 34.7 52.3 34 51.5 34ZM21 35.6V41.7C21 42.6 21.7 43.4 22.6 43.4H23.2V34H22.6C21.7 34 21 34.7 21 35.6ZM49.4 35.3C49.4 34.6 49.3 33.9 49.2 33.2C49.2 33 49.1 32.7 49 32.5V30.7C49 23.9 43.6 18.4 37 18.4C30.4 18.4 25 24 25 30.8V32C24.9 32.2 24.9 32.3 24.8 32.5C24.6 33.4 24.4 34.4 24.4 35.3V46.9C24.4 47.4 24.8 47.7 25.2 47.7H27.7C28.5 52.1 32.4 55.5 37 55.5C40.6 55.5 43.8 53.4 45.4 50.3C48.1 50.1 50.3 47.8 50.3 45H49.4V35.3ZM43.9 47.9H38C37.3 47.9 36.8 48.5 36.8 49.1C36.8 49.8 37.3 50.3 38 50.3H42.6C41.3 52 39.3 53 37.1 53C33.2 53 30.1 49.8 30.1 45.8V38C31 37.4 32.6 36.3 33.7 34.8C35.4 36.2 38.8 38.3 44.2 38.5V45.8C44.1 46.5 44 47.2 43.9 47.9ZM38.8 24.4H35.2C32.5 24.4 30 25.4 28.2 27.1C29.5 23.5 33 21 37 21C41.1 21 44.7 23.7 46 27.4C44.2 25.6 41.6 24.4 38.8 24.4ZM34.6 40.3H32.7C32 40.3 31.5 40.9 31.5 41.5C31.5 42.2 32 42.7 32.7 42.7H34.6C35.3 42.7 35.8 42.1 35.8 41.5C35.8 40.9 35.2 40.3 34.6 40.3ZM41.4 40.3H39.5C38.8 40.3 38.3 40.9 38.3 41.5C38.3 42.2 38.8 42.7 39.5 42.7H41.4C42.1 42.7 42.6 42.1 42.6 41.5C42.6 40.9 42 40.3 41.4 40.3Z" fill="white"/>
</svg>
